<svg width="123" height="21" viewBox="0 0 123 21" fill="none" xmlns="http://www.w3.org/2000/svg">
<g clip-path="url(#clip0_407_27)">
<path d="M28.3075 5.42473H32.0144V19.7659H28.3075V18.0736C27.1868 19.4791 25.6351 20.1675 23.6236 20.1675C22.6916 20.1775 21.7682 19.9881 20.9157 19.6121C20.0631 19.2361 19.3012 18.6822 18.6811 17.9876C17.3263 16.5222 16.5948 14.5888 16.6408 12.5953C16.5949 10.6104 17.3269 8.686 18.6811 7.23173C20.0604 5.76892 21.6983 5.02319 23.6236 5.02319C25.6351 5.02319 27.1868 5.71157 28.3075 7.117V5.42473ZM24.3132 16.6395C24.8388 16.6566 25.3623 16.5662 25.8515 16.3738C26.3408 16.1815 26.7854 15.8912 27.1581 15.5209C27.5398 15.1375 27.8387 14.6801 28.0364 14.1769C28.2341 13.6738 28.3263 13.1355 28.3075 12.5953C28.3075 11.4193 27.9339 10.4441 27.1581 9.69839C26.791 9.3187 26.348 9.02033 25.8579 8.82267C25.3678 8.62501 24.8415 8.53248 24.3132 8.5511C23.785 8.53249 23.2587 8.62502 22.7686 8.82268C22.2784 9.02034 21.8355 9.3187 21.4684 9.69839C21.0945 10.0801 20.8023 10.5338 20.6096 11.0318C20.417 11.5299 20.3279 12.0618 20.3477 12.5953C20.3305 13.1328 20.4207 13.6684 20.6131 14.1707C20.8055 14.673 21.0963 15.132 21.4684 15.5209C21.8411 15.8912 22.2857 16.1815 22.7749 16.3738C23.2642 16.5662 23.7877 16.6566 24.3132 16.6395Z" fill="#5405BD"/>
<path d="M35.3695 19.7661V0.385132H39.0764V19.7661H35.3695Z" fill="#5405BD"/>
<path d="M55.7214 19.7661H51.411L46.1812 13.2552V19.7661H42.4742V0.385132H46.1812V11.735L51.1237 5.42492H55.5489L49.7731 12.5095L55.7214 19.7661Z" fill="#5405BD"/>
<path d="M67.4169 0.33255H71.1238V19.6864H67.4169V17.9941C66.325 19.3996 64.7732 20.088 62.7617 20.088C61.8255 20.0982 60.8978 19.9091 60.0406 19.5332C59.1834 19.1573 58.4163 18.6033 57.7905 17.9081C56.4357 16.4427 55.7042 14.5093 55.7503 12.5158C55.7043 10.5309 56.4363 8.60649 57.7905 7.15222C59.1698 5.68941 60.8365 4.94368 62.7617 4.94368C64.7732 4.94368 66.325 5.63206 67.4169 7.03749V0.33255ZM63.4514 16.56C63.977 16.5771 64.5005 16.4867 64.9897 16.2943C65.4789 16.1019 65.9236 15.8117 66.2962 15.4414C66.6684 15.0525 66.9591 14.5935 67.1515 14.0912C67.344 13.5889 67.4342 13.0533 67.4169 12.5158C67.4368 11.9823 67.3477 11.4504 67.155 10.9523C66.9623 10.4543 66.6702 10.0006 66.2962 9.61889C65.9292 9.2392 65.4862 8.94083 64.9961 8.74317C64.506 8.54551 63.9797 8.45298 63.4514 8.47159C62.9192 8.4556 62.3894 8.54922 61.895 8.74661C61.4006 8.944 60.9522 9.24093 60.5779 9.61889C60.2039 10.0006 59.9118 10.4543 59.7191 10.9523C59.5264 11.4504 59.4373 11.9823 59.4572 12.5158C59.4399 13.0533 59.5301 13.5889 59.7226 14.0912C59.915 14.5935 60.2057 15.0525 60.5779 15.4414C60.9577 15.8099 61.4077 16.0988 61.9013 16.2909C62.3948 16.483 62.9219 16.5745 63.4514 16.56Z" fill="#5405BD"/>
<path d="M77.326 14.1155C77.8145 15.9225 79.165 16.8116 81.3777 16.8116C82.7857 16.8116 83.8777 16.324 84.5961 15.3775L87.5846 17.0985C86.1765 19.1349 84.0788 20.1675 81.3202 20.1675C78.9352 20.1675 77.0386 19.4504 75.6018 18.0163C74.165 16.5822 73.4466 14.7752 73.4467 12.5953C73.4467 10.4442 74.165 8.63716 75.5731 7.20304C76.9811 5.74025 78.8202 5.02319 81.0328 5.02319C83.1305 5.02319 84.8834 5.74025 86.234 7.20304C87.6133 8.66584 88.3029 10.4442 88.3029 12.5953C88.2952 13.105 88.2472 13.6133 88.1593 14.1155L77.326 14.1155ZM84.5961 11.2473C84.165 9.29687 82.7282 8.35034 81.0328 8.35034C79.0501 8.35034 77.6995 9.4116 77.2685 11.2473H84.5961Z" fill="#5405BD"/>
<path d="M97.0087 11.0751C99.1064 11.5054 101.836 12.5093 101.807 15.5783C101.807 17.0411 101.262 18.1883 100.141 18.9915C99.0489 19.7659 97.6696 20.1674 96.0317 20.1674C93.0719 20.1674 91.0604 19.0201 89.9972 16.7542L93.2156 14.9472C93.6466 16.1806 94.5661 16.8116 96.0317 16.8116C97.3535 16.8116 98.0144 16.4101 98.0144 15.5783C98.0144 14.8038 96.865 14.3736 95.3995 14.0007C93.273 13.4558 90.6006 12.5666 90.6006 9.58365C90.6006 8.17821 91.1179 7.0596 92.1524 6.2565C93.2156 5.42471 94.5087 5.02316 96.0604 5.02316C98.388 5.02316 100.399 6.11308 101.52 8.06349L98.3593 9.78443C98.1732 9.33431 97.8527 8.95236 97.4413 8.69061C97.0299 8.42886 96.5478 8.30001 96.0604 8.32162C95.1121 8.32162 94.3937 8.78054 94.3937 9.4976C94.3937 10.272 95.5431 10.7023 97.0087 11.0751Z" fill="#5405BD"/>
<path d="M117.44 19.7661H113.13L107.9 13.2552V19.7661H104.193V0.385162H107.9V11.7351L112.843 5.42495H117.268L111.492 12.5095L117.44 19.7661Z" fill="#5405BD"/>
<path d="M14.9384 8.9012H11.6913V15.1493C11.6913 16.6982 12.812 16.7268 14.9384 16.6121V19.9679C9.85218 20.5416 7.98438 19.0788 7.98438 15.1493V0.33255H11.6913V5.34457H14.9384V8.9012Z" fill="#5405BD"/>
<path d="M2.3447 8.86399C3.38757 8.86399 4.23298 8.02014 4.23298 6.97921C4.23298 5.93827 3.38757 5.09442 2.3447 5.09442C1.30183 5.09442 0.456421 5.93827 0.456421 6.97921C0.456421 8.02014 1.30183 8.86399 2.3447 8.86399Z" fill="#5405BD"/>
<path d="M2.3447 14.1144C3.38757 14.1144 4.23298 13.2706 4.23298 12.2297C4.23298 11.1887 3.38757 10.3449 2.3447 10.3449C1.30183 10.3449 0.456421 11.1887 0.456421 12.2297C0.456421 13.2706 1.30183 14.1144 2.3447 14.1144Z" fill="#994FFA"/>
<path d="M2.3447 19.3649C3.38757 19.3649 4.23298 18.5211 4.23298 17.4801C4.23298 16.4392 3.38757 15.5953 2.3447 15.5953C1.30183 15.5953 0.456421 16.4392 0.456421 17.4801C0.456421 18.5211 1.30183 19.3649 2.3447 19.3649Z" fill="#BF91FC"/>
<path d="M121.114 8.8383C120.862 8.84014 120.613 8.79051 120.381 8.69249C119.928 8.50041 119.567 8.14025 119.375 7.68787C119.278 7.45594 119.228 7.20727 119.228 6.95612C119.228 6.70498 119.278 6.45631 119.375 6.22437C119.567 5.77195 119.928 5.41176 120.381 5.21976C120.613 5.12344 120.863 5.07385 121.114 5.07385C121.366 5.07385 121.615 5.12344 121.847 5.21976C122.3 5.41176 122.661 5.77195 122.854 6.22437C122.95 6.45631 123 6.70498 123 6.95612C123 7.20727 122.95 7.45594 122.854 7.68787C122.661 8.14025 122.3 8.50041 121.847 8.69249C121.615 8.79051 121.366 8.84013 121.114 8.8383ZM121.114 8.4878C121.386 8.49087 121.653 8.41921 121.886 8.28069C122.115 8.14567 122.306 7.9551 122.441 7.7267C122.577 7.49253 122.649 7.22672 122.649 6.95612C122.649 6.68553 122.577 6.41972 122.441 6.18555C122.306 5.95716 122.115 5.76657 121.886 5.63147C121.652 5.49586 121.385 5.42445 121.114 5.42445C120.843 5.42445 120.577 5.49586 120.342 5.63147C120.113 5.76657 119.922 5.95716 119.787 6.18555C119.651 6.41972 119.58 6.68553 119.58 6.95612C119.58 7.22672 119.651 7.49253 119.787 7.7267C119.922 7.9551 120.113 8.14567 120.342 8.28069C120.576 8.41921 120.843 8.49087 121.114 8.4878ZM120.475 7.80313V6.06677H121.31C121.399 6.06702 121.486 6.08838 121.566 6.12908C121.649 6.17138 121.719 6.23464 121.771 6.3126C121.827 6.40141 121.855 6.50514 121.852 6.61026C121.855 6.71786 121.826 6.82388 121.768 6.91498C121.716 6.99756 121.643 7.06521 121.556 7.11141C121.475 7.15582 121.384 7.17928 121.291 7.17967H120.645V6.94201H121.211C121.254 6.94213 121.296 6.93347 121.335 6.91657C121.374 6.89966 121.41 6.87487 121.439 6.84375C121.468 6.81262 121.49 6.77582 121.505 6.73565C121.519 6.69548 121.525 6.6528 121.522 6.61026C121.526 6.56627 121.52 6.52189 121.503 6.48092C121.487 6.43994 121.46 6.40361 121.426 6.37501C121.367 6.32921 121.293 6.3044 121.218 6.30443H120.779V7.80313H120.475ZM121.489 6.99615L121.923 7.80313H121.583L121.161 6.99615H121.489Z" fill="#5405BD"/>
</g>
<defs>
<clipPath id="clip0_407_27">
<rect width="123" height="20.5" fill="white"/>
</clipPath>
</defs>
</svg>
